Patient4_TMGait_0pt3_02_right_05_EMG.mot
version=1
nRows=40
nColumns=33
inDegrees=no
endheader
time	1LAddLong	2LGlutMax	3LGlutMed	4LIliopsoas	5LSemiMemb	6LBicFemLong	7LRecFem	8LVastMed	9LVastLat	10LGasMed	11LTibAnt	12lTibPost	13LPeroneusLong	14LSol	15LExtDigLong	16LFlexDigLong	17RAddLong	18RGlutMax	19RGlutMed	20RIliopsoas	21RSemiMemb	22RBicFemLong	23RRecFem	24RVastMed	25RVastLat	26RGasMed	27RTibAnt	28RTibPost	29RPeroneusLong	30RSol	31RExtDigLong	32RFlexDigLong
9.025	0.003357	-0.11185	0.023956	0.006561	0.011139	-0.16235	0.050659	0.007324	-0.004272	0.015869	-0.001984	0.004578	-0.074463	0.018158	0.002747	0.010376	0.019989	0.16022	-0.79239	0.008087	-0.2652	-0.13718	-0.005798	-0.22339	0.24887	0.00061	0.019531	-0.027771	0.16632	0.11185	-0.001373	-0.006561
9.026	0.00885	-0.07309	0.022278	-0.000305	0.039978	-0.096588	0.046082	0.007172	0.005341	0.018005	0.003815	0.008087	-0.078583	0.014954	-0.00946	0.01358	0.076599	0.1564	-0.34378	0.038605	-0.17517	-0.159	0.11993	-0.34393	0.19913	-0.020447	0.003357	-0.046387	0.36453	0.00412	-0.001831	-0.012207
9.027	0.007324	-0.17807	0.03418	-0.002136	0.043945	-0.06012	0.037079	0.008698	0.01358	0.030823	-0.007324	-0.005951	-0.079956	0.033722	-0.014496	0.012207	0.086517	-0.003967	0.031433	0.008698	-0.16541	-0.13657	0.09964	-0.29404	0.19882	-0.10407	-0.027313	0.016174	0.095367	-0.10941	-0.003052	-0.018311
9.028	0.009766	-0.18906	0.048828	-0.004272	0.029755	0.1236	0.058441	-0.015564	-0.00061	0.023346	0.003204	0.003967	-0.058899	0.028534	-0.00885	0.004883	0.035706	0.055695	0.055542	0.024567	-0.048676	-0.089569	0.029449	-0.19943	0.1564	-0.12024	-0.047913	-0.004578	-0.046997	-0.121	-0.000916	-0.009003
9.029	-0.006866	-0.1622	0.045166	0.000153	0.019989	0.15625	0.061493	0.000305	0.001068	0.043182	-0.003052	0.001068	-0.071869	0.024872	-0.014801	0.010376	-0.011902	0.2002	0.2475	-0.048523	0.032196	-0.00885	-0.073395	-0.034637	-0.025635	-0.12985	-0.036926	0.042725	-0.27817	-0.22324	0.001984	-0.015106
9.03	-0.016174	-0.14145	0.047913	0.013733	-0.024414	0.16846	0.054169	0.009613	0.004883	-0.005951	-0.007324	0.007019	-0.077057	0.031433	0.001678	0.019531	0.007019	0.31372	0.2861	-0.084534	0.02121	0.10681	-0.080414	-0.019379	-0.37079	-0.035553	-0.000458	-0.006561	-0.33157	-0.021362	0.000153	-0.008545
9.031	-0.011749	-0.15518	0.045929	0.014648	-0.062561	0.19394	0.043945	0.00412	-0.001678	0.041809	-0.000305	0.001984	-0.063171	0.028687	0.001373	0.015564	-0.022583	0.16861	0.52582	-0.057831	-0.24429	0.53589	-0.20905	0.18356	-0.52307	0.023956	0.020294	-0.040741	0.039063	0.14572	-0.00412	-0.011902
9.032	-0.015564	-0.13977	0.05249	0.013733	-0.039673	0.15488	0.029449	0.001831	0.020599	0.016479	-0.015717	0.004578	-0.074768	-0.005188	0.009766	0.016785	-0.058899	0.31021	0.16251	-0.010223	-0.33096	0.4042	-0.15533	0.14511	-0.21744	0.046387	0.009003	0.12711	0.2655	0.088043	0.00061	-0.008392
9.033	-0.016327	-0.12619	0.05127	0.004272	-0.018616	0.15121	0.007019	0	0.036163	0.002289	0.002441	0.002594	-0.090637	-0.005798	0.00885	0.011902	0.001526	0.4921	0.17227	0.026245	-0.22034	0.31036	0.011597	0.092468	-0.002136	0.19104	-0.023346	0.016937	0.25559	0.082397	-0.004883	-0.009003
9.034	-0.00885	-0.11078	0.043488	-0.004883	-0.035095	0.13229	0.010529	-0.001221	0.042419	-0.007477	-0.04425	0.006561	-0.083313	-0.062561	0.028992	0.011292	0.024719	0.71777	0.21347	0.11215	0.33646	0.24567	0.15503	0.24262	0.042267	0.043945	-0.045166	-0.11368	0.27557	-0.054474	0.001221	-0.000458
9.035	-0.008545	-0.14175	0.039215	0.007629	-0.037689	0.10971	0.019684	-0.00351	0.044556	0.021667	-0.075684	0.001221	-0.09613	-0.048981	0.1741	0.019226	0.020447	0.76553	0.022583	0.13641	0.30243	0.1355	0.17075	0.30823	0.02182	0.087585	-0.025787	-0.31326	0.28976	-0.056305	0.001526	-0.010681
9.036	-0.000458	-0.13001	0.050049	0.015564	-0.031281	-0.10025	0.016632	-0.01358	0.04776	0.029297	-0.068512	0.003967	-0.10056	0.002289	0.14969	0.005646	0.026703	0.85571	0.13306	0.073853	0.093536	0.10757	0.1329	0.28946	0.026245	0.10712	0.005646	0.29495	0.18875	-0.26993	-0.00824	-0.005493
9.037	0.019073	-0.15213	0.04837	0.005951	0.020599	-0.15549	0.007019	-0.011902	0.041504	0.017853	-0.070648	-0.000916	-0.11292	0.002899	0.063324	0.007019	0.029297	0.91354	0.60257	0.0383	0.045471	0.23209	0.037537	0.19196	0.039673	0.047455	0.030975	0.14358	0.094452	0.086365	-0.000153	-0.001068
9.038	0.020905	-0.17014	0.052185	0.031281	0.023346	-0.17548	0.039215	-0.003967	0.005341	0.015411	-0.044708	-0.003815	-0.09613	-0.00061	0.009003	0.011292	0.007324	0.91934	0.84167	-0.054779	-0.080261	0.36926	-0.056	0.17044	0.063171	0.003204	0.040894	0.031586	-0.034332	0.30533	-0.006409	-0.008087
9.039	0.009918	-0.16754	0.058899	0.019073	0.039673	-0.11383	0.052338	0.001678	0.000458	-0.001831	0.09964	-0.005951	-0.068512	0.021362	0.005798	0.012512	-0.024109	0.87906	0.61417	-0.051422	-0.11124	0.18188	-0.062103	0.19974	-0.00473	-0.023804	0.004578	-0.003967	0.076141	-0.11108	-0.003357	-0.00885
9.04	-0.004883	-0.15961	0.060883	0.006104	0.024261	0.097351	0.049286	0.003357	-0.024414	0.004425	0.17502	-0.01358	-0.074463	0.018158	0.021515	0.011292	-0.029449	0.83298	0.28046	-0.019379	0.16083	-0.06134	0.035706	0.17395	-0.052948	-0.035095	-0.003357	-0.008087	0.23148	-0.48035	-0.002136	-0.00824
9.041	0.006409	-0.15778	0.057983	0.008087	0.007477	0.17746	0.031128	0.001373	-0.002899	0.000305	0.093079	-0.006104	-0.063629	-0.016479	-0.19913	0.007782	-0.034485	0.5484	-0.23117	0.002899	0.12131	-0.061798	0.14481	0.21027	-0.084991	-0.031128	-0.006256	-0.13626	0.19699	-0.32745	-0.00061	-0.004272
9.042	0.007477	-0.15488	0.048065	0.007935	0.039215	0.13947	-0.002747	-0.000458	0.023804	-0.007019	-0.000458	-0.013733	-0.052948	-0.014954	0.1506	0.006409	0.000305	0.30914	-0.53238	-0.005798	-0.022888	-0.019684	0.24292	-0.000916	-0.04715	-0.037079	-0.013428	-0.15961	0.1268	-0.094757	0.000305	-0.01236
9.043	0.007782	-0.15762	0.047607	0.006561	0.076141	0.19318	-0.014343	0.003662	0.005646	0	0.049896	-0.005951	-0.076752	-0.003967	-0.27832	0.006714	0.012054	0.062866	-0.58487	-0.007782	-0.1239	-0.079956	0.21591	-0.11459	-0.073853	0.010071	-0.018768	-0.023804	0.068817	-0.042419	-0.001221	-0.005798
9.044	0.001678	-0.12634	0.033417	0.001068	0.065308	0.02243	-0.007172	-0.003967	0.005188	0.010529	0.084991	-0.008698	-0.092163	-0.002747	-0.22201	0.008087	0.014191	-0.053558	-0.81894	0.009155	-0.16815	-0.005798	0.23834	-0.21683	-0.060883	0.11536	0.008698	-0.087433	-0.046234	-0.006104	-0.006561	-0.017395
9.045	0.000153	-0.17395	0.033417	0.011139	0.024261	-0.16083	0.00946	0.001831	0.001373	0.009766	0.021057	-0.009155	-0.060883	0.002136	-0.21866	0.013885	-0.025635	-0.11887	-0.88684	0.10193	-0.044098	0.091858	0.14526	-0.34409	0.09903	0.071259	0.00946	0.066223	-0.12024	-0.061798	0.002136	-0.019226
9.046	0.011139	-0.21744	0.036011	0.006866	-0.002747	-0.1033	-0.020447	-0.007935	-0.002747	0.015869	-0.06897	-0.004425	-0.065613	-0.017548	-0.22964	0.018158	-0.02182	-0.10071	-0.50323	0.0914	0.095673	0.15198	-0.093994	-0.34058	0.35034	0.019531	-0.005798	0.26169	-0.16342	-0.18845	-0.002899	-0.015564
9.047	-0.009766	-0.21133	0.030518	0.001221	-0.047607	0.011597	-0.004883	0.005493	-0.014496	0.04303	-0.13077	0.001526	-0.092163	-0.046539	0.36224	0.01297	0.036469	-0.007172	0.23544	0.002747	-0.12421	0.08255	-0.4538	-0.31967	0.43778	0.023499	-0.020294	0.098572	-0.16617	0.063782	-0.002136	-0.015106
9.048	-0.00946	-0.19241	0.036316	0.011292	-0.067291	-0.015411	-0.04364	-0.010681	0.004425	0.030518	-0.19501	-0.002289	-0.060425	0.007477	0.041046	0.025177	0.032654	0.092926	0.83099	0.023956	-0.3244	0.006714	-0.48523	-0.29617	0.070953	-0.000305	-0.00824	-0.19501	-0.1387	-0.23712	0	-0.01709
9.049	0.005188	-0.18997	0.036163	0.010529	-0.033417	-0.14023	-0.054474	0.027771	0.007172	0.008698	-0.10376	-0.001678	-0.022888	0.027924	0.027466	0.015411	0.03067	0.18021	0.84244	-0.032349	-0.32135	-0.010986	-0.16419	-0.16098	-0.29175	-0.016785	0.006561	0.13886	-0.042572	-0.41962	-0.002594	-0.015869
9.05	0.011749	-0.18677	0.014801	0.02182	0.006256	-0.16815	-0.054779	-0.006561	0.000153	-0.008545	0.015106	-0.000458	-0.00473	0.016327	-0.17639	0.009918	0.029297	0.41046	0.34683	-0.070496	-0.25971	-0.020294	-0.061035	0.09613	-0.11749	-0.070038	0.022278	0.029144	-0.091553	-0.22064	0.000153	-0.018005
9.051	0.011597	-0.2214	0.031891	0.011139	0.016632	-0.11032	-0.032196	0.000763	-0.005493	-0.005188	0.003357	0.001984	-0.050812	0.001068	-0.17319	0.019073	0.019379	0.50598	0.47363	-0.095673	-0.005341	-0.063477	-0.020905	0.38376	-0.056305	-0.025635	0.032196	-0.00061	-0.2565	0.22537	-0.003662	-0.014496
9.052	0.009766	-0.18829	0.032806	-0.005646	0.034943	-0.06546	-0.031891	-0.002136	0.001068	0.005035	-0.12238	0.001984	-0.10971	0.004883	0.42938	0.002899	0.002747	0.51941	0.69214	-0.060577	0.29022	-0.13138	0.064392	0.33951	-0.032349	-0.035553	0.007935	0.02243	-0.024261	0.72372	-0.002594	-0.011292
9.053	-0.005798	-0.24277	0.040588	0.004578	0.018921	0.15884	-0.003815	0.00473	-0.022278	0.036774	-0.16983	-0.002594	-0.15457	0.02121	0.092621	0.003662	-0.013733	0.53268	0.58182	0.058289	0.30502	-0.15961	0.084229	0.3006	0.013428	-0.00824	-0.002747	-0.068359	0.25543	0.60318	-0.004425	-0.013275
9.054	-0.006256	-0.26321	0.038452	0.003357	0.022736	0.30884	0.029907	0.007477	-0.035858	0.065002	0.069885	0.005188	-0.1738	0.042877	-0.078888	-0.007172	-0.01358	0.5751	0.27878	0.15579	0.14725	-0.092468	0.059052	0.15045	0.037231	-0.012512	-0.028992	-0.25284	0.33661	0.032501	-0.000153	-0.012665
9.055	-0.012665	-0.27878	0.043945	0.00412	-0.050201	0.40527	0.016937	0.006256	-0.027466	0.023193	0.23727	-0.002441	-0.075073	0.10849	-0.36911	0.000916	-0.003052	0.58395	-0.34622	0.12161	0.10239	-0.08255	0.040588	-0.018311	0.039673	-0.023193	-0.000153	0.22476	0.20538	-0.30807	-0.00061	-0.002594
9.056	-0.009918	-0.26321	0.044556	0.002899	-0.074005	0.22583	0.008698	0.00885	-0.017548	-0.016174	0.56229	0.003357	-0.031281	0.15945	-0.12299	-0.002594	0.014496	0.56763	-0.6633	0.073853	0.103	-0.096588	-0.000305	-0.014343	0.039215	-0.005951	0.001984	0.063934	0.06485	-0.26032	-0.001984	-0.006866
9.057	-0.003357	-0.24933	0.067902	0.003967	-0.046997	-0.14053	-0.017548	-0.002899	-0.003967	-0.033875	0.41336	0.001068	0.1091	0.26413	0.79178	0.01297	-0.001831	0.56824	-0.18143	-0.015259	0.28946	-0.1326	-0.031433	0.002899	0.067902	0.023956	0.048676	-0.007019	-0.026093	0.17716	0.004425	-0.005493
9.058	0.006561	-0.2449	0.059662	0.003815	-0.042114	-0.3331	-0.037689	-0.002899	-0.006561	-0.055542	0.13657	0.008698	0.19714	0.27069	1.0634	0.025024	-0.032501	0.52277	0.44678	-0.023499	0.23651	-0.092926	-0.064392	0.044556	0.0914	0.005188	0.051575	-0.021362	-0.025177	0.18158	-0.002289	-0.013733
9.059	0.006409	-0.25955	0.045319	-0.002899	-0.012512	-0.32608	0.028381	0.005188	-0.016785	-0.03952	0.36011	0.010681	0.072937	0.23941	1.0083	0.039978	-0.042419	0.31372	0.16708	0.066833	-0.052338	-0.052185	-0.076752	0.024567	0.038452	0.017242	0.039825	-0.024567	0.15457	0.10651	-0.00412	-0.010071
9.06	0.014801	-0.29739	0.04776	0.003967	0.02594	-0.19959	0.031281	0.00946	-0.040894	-0.023041	0.20508	0.008545	-0.1387	0.2243	-0.20966	0.029907	-0.000916	0.12604	-0.056305	0.12039	-0.071259	-0.13641	0.024414	-0.070801	0.033875	0.042877	0.001678	-0.016785	0.28778	-0.37323	-0.003204	-0.01709
9.061	0.001831	-0.30136	0.048981	0.014191	0.066528	-0.031891	0.033722	0.003357	-0.028534	-0.021057	0.1004	0.011597	-0.17425	0.29572	-0.29907	0.03067	0.026093	0.14938	0.057068	0.01297	0.029449	-0.26001	0.066376	-0.051727	0.016479	0.036163	-0.036316	-0.008087	-0.010681	-0.76706	0.00061	-0.021362
9.062	0.010071	-0.2739	0.066528	0.007629	0.029144	0.18631	-0.002441	0.01297	-0.03479	0.008545	-0.13977	0.007172	-0.13412	0.21851	-0.83664	0.007477	0.025024	-0.005493	0.45364	-0.03418	0.040588	-0.17136	0.033722	-0.012665	0.015869	0.022583	-0.043945	0.016327	-0.029449	-1.3118	-0.001678	-0.028534
9.063	0.005341	-0.24185	0.08316	0.02182	0.008698	0.19486	0.010834	0.010376	-0.015564	0.006409	-0.39978	0.00824	-0.14816	0.13473	-0.58075	-0.015411	-0.001831	-0.11627	-0.14389	-0.050659	0.028229	-0.061493	0.060883	-0.041351	0.013275	0.003967	-0.058441	-0.057831	0.052338	-1.5178	0.001526	-0.026855
9.064	-0.004425	-0.25848	0.095673	0.005188	-0.013123	0.26077	0.033569	0.009308	-0.033417	0.009766	-0.62637	0.008698	0.001678	-0.024414	-0.86655	-0.02243	0.016632	-0.066223	-0.37186	-0.023956	-0.14313	-0.13534	-0.016479	-0.10025	0.048523	0.023193	-0.062866	-0.29205	0.029907	-0.73914	-0.00061	-0.011139
